<svg width="256" height="76" viewBox="0 0 256 76" fill="none" xmlns="http://www.w3.org/2000/svg">
<path d="M81.7149 23.9505C71.4379 17.389 58.1792 20.9537 50.8374 30.1908C49.6183 31.7279 48.5544 33.384 47.6615 35.1344C47.5527 35.352 47.3863 35.5348 47.1806 35.6626C46.975 35.7903 46.7382 35.8579 46.4967 35.8579C46.2553 35.8579 46.0185 35.7903 45.8129 35.6626C45.6072 35.5348 45.4408 35.352 45.332 35.1344C44.4391 33.384 43.3752 31.7279 42.1561 30.1908C34.8104 20.9537 21.5517 17.389 11.2592 23.9505C0.819207 30.6099 -1.751 44.916 1.0211 56.2762C2.28996 61.3425 4.44774 66.1386 7.39227 70.4374C8.73741 72.4147 10.2453 74.2742 11.8998 75.9961H35.6762C35.1482 75.5612 33.1332 73.9512 32.6401 73.4733C29.5816 70.512 27.2453 66.8755 25.8147 62.8495C25.0549 60.7749 24.5617 58.6106 24.3471 56.4094C24.1813 54.6927 24.2795 52.9603 24.6383 51.2738C24.6927 51.0192 24.7548 50.7685 24.8247 50.5139C25.1838 49.2605 25.7339 48.0711 26.4553 46.9883L26.4786 46.9491C29.3439 42.6126 34.7095 39.6472 39.5859 39.0361C40.6073 38.9082 41.6355 38.8428 42.6647 38.8402C43.8295 38.8402 44.9399 38.8677 46.291 38.8402H46.6792C48.0303 38.8402 49.1563 38.8402 50.3055 38.8402C51.3347 38.8428 52.3629 38.9082 53.3843 39.0361C58.2568 39.6472 63.6263 42.6126 66.4916 46.9491L66.5149 46.9883C67.2363 48.0711 67.7864 49.2605 68.1455 50.5139C68.2154 50.7685 68.2775 51.0192 68.3319 51.2738C68.6972 52.9593 68.802 54.6916 68.6425 56.4094C68.4258 58.6122 67.9299 60.7779 67.1671 62.8534C65.7365 66.8794 63.4002 70.5159 60.3417 73.4772C59.8486 73.9551 57.8336 75.5651 57.3056 76H81.082C82.7314 74.2762 84.234 72.4155 85.5741 70.4374C88.5189 66.1393 90.6755 61.3429 91.9413 56.2762C94.7328 44.916 92.1549 30.6178 81.7149 23.9505Z" fill="white"/>
<path d="M45.8406 25.3176C48.376 25.4512 50.8919 24.8062 53.0566 23.4677C55.2212 22.1291 56.9329 20.16 57.9657 17.8199C58.9985 15.4798 59.304 12.8788 58.8418 10.36C58.3797 7.84124 57.1716 5.52296 55.3769 3.71105C53.5823 1.89913 51.2854 0.678696 48.7893 0.210746C46.2932 -0.257204 43.7152 0.0493147 41.3952 1.08987C39.0753 2.13042 37.1225 3.85612 35.7945 6.03931C34.4664 8.2225 33.8255 10.7606 33.9563 13.3188C34.1162 16.4475 35.4195 19.4054 37.6143 21.6213C39.8091 23.8373 42.7399 25.1541 45.8406 25.3176Z" fill="#FFD650"/>
<path d="M129.792 46.8161C131.248 46.2552 132.535 45.3225 133.527 44.1092C134.834 42.4774 135.523 40.4288 135.468 38.3312C135.506 36.4703 134.975 34.6428 133.946 33.0976C132.879 31.5643 131.396 30.3742 129.675 29.6699C127.819 28.8604 125.537 28.4543 122.827 28.4517H109.875C108.481 28.4517 107.413 28.8434 106.664 29.5877C105.914 30.332 105.538 31.4406 105.538 32.8782V62.0858C105.538 63.5274 105.913 64.6255 106.664 65.3803C107.413 66.1363 108.481 66.5124 109.875 66.5124H123.409C127.478 66.5124 130.661 65.5683 132.96 63.6802C135.258 61.792 136.409 59.1726 136.411 55.822C136.411 53.2679 135.698 51.1787 134.272 49.5543C133.081 48.2133 131.521 47.2602 129.792 46.8161ZM113.516 34.7155H121.382C123.448 34.7155 124.985 35.1072 125.983 35.8907C126.981 36.6741 127.482 37.8493 127.482 39.4163C127.482 40.9832 126.981 42.1231 125.983 42.8988C124.985 43.6744 123.448 44.0739 121.382 44.0739H113.516V34.7155ZM127 59.0342C125.999 59.8464 124.446 60.2525 122.341 60.2525H113.516V50.3182H122.345C124.449 50.3182 126.002 50.723 127.004 51.5325C128.006 52.3421 128.505 53.61 128.503 55.3363C128.508 56.9946 128.007 58.2272 127 59.0342Z" fill="white"/>
<path d="M170.69 28.0207C169.405 28.0207 168.426 28.3654 167.747 29.047C167.395 29.4301 167.124 29.8808 166.949 30.3722C166.775 30.8635 166.7 31.3855 166.73 31.9067V52.598L149.449 30.3437C148.93 29.6735 148.327 29.0743 147.655 28.5613C146.985 28.1604 146.212 27.9721 145.434 28.0207C144.944 27.999 144.455 28.0817 143.999 28.2632C143.543 28.4448 143.13 28.7212 142.786 29.0744C142.126 29.777 141.796 30.8111 141.796 32.177V63.0024C141.796 64.299 142.126 65.2823 142.786 65.9443C143.447 66.6063 144.402 66.9432 145.652 66.9432C146.902 66.9432 147.853 66.6102 148.513 65.9443C149.173 65.2784 149.503 64.299 149.503 63.0024V42.2406L166.784 64.5693C167.346 65.2599 167.999 65.8689 168.725 66.3791C169.45 66.7895 170.275 66.985 171.105 66.9432C171.565 66.9653 172.024 66.8852 172.449 66.7085C172.874 66.5318 173.256 66.2629 173.567 65.9208C174.209 65.133 174.535 64.1306 174.479 63.1121V31.9067C174.511 31.3876 174.439 30.8674 174.269 30.3764C174.099 29.8854 173.834 29.4335 173.489 29.047C173.116 28.6927 172.676 28.4189 172.195 28.2425C171.713 28.066 171.201 27.9905 170.69 28.0207Z" fill="white"/>
<path d="M203.625 31.4208C203.183 30.3943 202.483 29.5018 201.595 28.8315C200.786 28.3012 199.842 28.019 198.877 28.019C197.912 28.019 196.968 28.3012 196.159 28.8315C195.256 29.4938 194.544 30.3878 194.098 31.4208L180.35 61.7605C179.944 62.579 179.794 63.5023 179.919 64.4086C179.979 64.7817 180.114 65.1387 180.314 65.4583C180.514 65.778 180.776 66.0538 181.083 66.2694C181.804 66.7482 182.656 66.9841 183.518 66.9431C184.693 66.9431 185.566 66.665 186.138 66.1087C186.857 65.3241 187.436 64.4203 187.851 63.4371L190.033 58.2545H207.678L209.895 63.4371C210.257 64.4543 210.853 65.37 211.635 66.1087C212.295 66.665 213.23 66.9431 214.442 66.9431C215.269 66.9734 216.085 66.7375 216.771 66.2694C217.073 66.0574 217.328 65.7853 217.521 65.47C217.714 65.1547 217.84 64.8028 217.893 64.4361C217.993 63.5129 217.816 62.5809 217.385 61.7605L203.625 31.4208ZM198.811 37.3595H198.92L204.918 51.7087H192.812L198.811 37.3595Z" fill="white"/>
<path d="M255.01 29.047C254.35 28.3654 253.414 28.0207 252.199 28.0207C250.918 28.0207 249.936 28.3654 249.256 29.047C248.904 29.4301 248.633 29.8808 248.458 30.3722C248.284 30.8635 248.209 31.3855 248.239 31.9067V52.598L230.958 30.3437C230.441 29.6728 229.84 29.0736 229.168 28.5613C228.498 28.1604 227.725 27.9721 226.947 28.0207C226.457 27.9985 225.967 28.0808 225.51 28.2624C225.053 28.444 224.639 28.7207 224.296 29.0744C223.636 29.777 223.305 30.8111 223.305 32.177V63.0024C223.305 64.299 223.636 65.2823 224.296 65.9443C224.956 66.6063 225.911 66.9432 227.161 66.9432C228.411 66.9432 229.362 66.6102 230.022 65.9443C230.682 65.2784 231.012 64.299 231.012 63.0024V42.2406L248.293 64.5693C248.855 65.2591 249.509 65.868 250.234 66.3791C250.961 66.7898 251.787 66.9853 252.618 66.9432C253.077 66.9647 253.535 66.8843 253.96 66.7077C254.384 66.531 254.765 66.2624 255.076 65.9208C255.72 65.1339 256.046 64.1309 255.988 63.1121V31.9067C256.021 31.3884 255.952 30.8686 255.784 30.3777C255.616 29.8868 255.353 29.4344 255.01 29.047Z" fill="white"/>
</svg>
